<svg width="512" height="512" viewBox="0 0 512 512" fill="none" xmlns="http://www.w3.org/2000/svg">
<g clip-path="url(#clip0_904_35302)">
<path d="M212.858 143.163C217.148 137.719 222.69 133.393 229.013 130.554C235.336 127.715 242.252 126.447 249.17 126.858C256.089 127.269 262.806 129.348 268.748 132.916C274.69 136.484 279.68 141.436 283.295 147.35C328.542 133.636 375.467 126.234 422.738 125.355C403.582 100.816 379.244 80.8075 351.463 66.7582C323.682 52.709 293.143 44.9652 262.024 44.0793C230.906 43.1933 199.975 49.1873 171.44 61.6333C142.905 74.0792 117.469 92.6703 96.9468 116.08C136.454 120.865 175.321 129.947 212.858 143.163Z" fill="#17D4A7"/>
<path d="M435.405 143.216L422.95 143.534C377.424 144.434 332.237 151.567 288.648 164.734C288.702 165.599 288.702 166.466 288.648 167.331C288.653 177.12 285.027 186.562 278.472 193.831C292.473 213.22 305.442 233.335 317.321 254.092C322.515 263.173 327.32 272.112 331.737 280.91H333.91C339.594 280.857 345.153 282.581 349.81 285.839C385.532 255.417 417.226 214.554 444.892 163.25L445.74 161.713" fill="#17D4A7"/>
<path d="M263.738 204.378C258.346 206.69 252.539 207.88 246.672 207.876C240.687 207.902 234.764 206.669 229.286 204.259C223.808 201.848 218.896 198.314 214.872 193.884C161.448 220.914 105.586 263.738 67.7444 331.684C93.4883 341.474 120.45 347.697 147.88 350.181C150.026 345.918 153.323 342.341 157.398 339.856C161.473 337.372 166.162 336.078 170.935 336.122C175.707 336.166 180.372 337.546 184.4 340.106C188.428 342.666 191.658 346.303 193.725 350.605H196.004C235.942 347.549 274.641 335.344 309.106 314.936C308.065 312.23 307.526 309.356 307.516 306.456C307.523 303.086 308.211 299.751 309.541 296.654C310.871 293.557 312.815 290.762 315.254 288.436C300.277 259.129 283.054 231.026 263.738 204.378Z" fill="#17D4A7"/>
<path d="M351.665 442.931C356.223 406.785 348.061 368.201 334.387 331.631H334.069C329.43 331.637 324.868 330.45 320.819 328.186C283.189 351.309 240.576 365.101 196.534 368.413H194.255C192.319 373.124 189.017 377.147 184.773 379.963C180.53 382.78 175.54 384.26 170.447 384.215C165.354 384.169 160.392 382.599 156.2 379.707C152.007 376.815 148.777 372.734 146.926 367.989C119.404 365.701 92.3119 359.747 66.3662 350.287C78.8334 375.248 96.1046 397.502 117.19 415.774C138.276 434.046 162.762 447.975 189.243 456.764C215.723 465.553 243.678 469.029 271.504 466.991C299.331 464.954 326.482 457.444 351.4 444.892L351.665 442.931Z" fill="#17D4A7"/>
<path d="M454.803 182.489C430.316 226.994 398.185 266.839 359.88 300.202C360.418 302.189 360.685 304.239 360.675 306.297C360.649 309.974 359.821 313.602 358.246 316.925C356.671 320.249 354.389 323.187 351.559 325.536C366.346 364.968 372.759 401.273 370.692 434.133C411.302 408.064 441.783 368.898 457.081 323.129C472.379 277.361 471.575 227.738 454.803 182.489Z" fill="#17D4A7"/>
<path d="M205.968 177.931C204.284 172.052 204.029 165.855 205.226 159.858C165.869 146.153 125.049 137.082 83.5911 132.828C64.4772 159.505 51.8304 190.262 46.6516 222.669C41.4728 255.075 43.9041 288.242 53.7521 319.547C88.0961 259.498 139.665 211.48 205.968 177.931Z" fill="#17D4A7"/>
</g>
<defs>
<clipPath id="clip0_904_35302">
<rect width="424" height="424" fill="white" transform="translate(44 44)"/>
</clipPath>
</defs>
</svg>
